<svg xmlns="http://www.w3.org/2000/svg" viewBox="0 0 32 32"><defs><style>.cls-1{fill:#fff;}</style></defs><g id="Layer_2" data-name="Layer 2"><g id="Layer_1-2" data-name="Layer 1"><circle class="cls-1" cx="16" cy="16" r="16"/><path d="M19.71,15.71a6,6,0,1,0-7.42,0,10,10,0,0,0-6.22,8.18,1.29,1.29,0,0,0,0,.39.92.92,0,0,0,.19.35A1,1,0,0,0,7,25a1,1,0,0,0,.74-.22,1,1,0,0,0,.37-.67,8,8,0,0,1,15.9,0,1,1,0,0,0,.33.64A1,1,0,0,0,25,25h.11A1,1,0,0,0,26,23.9a10,10,0,0,0-6.25-8.19ZM16,15a4,4,0,0,1-2.22-.67,4.07,4.07,0,0,1-1.48-1.8A4,4,0,0,1,17.53,7.3a4.07,4.07,0,0,1,1.8,1.48A4,4,0,0,1,16,15Z"/></g></g></svg>