<svg xmlns="http://www.w3.org/2000/svg" viewBox="0 0 32 32"><defs><style>.cls-1{fill:#fff;}</style></defs><g id="Layer_2" data-name="Layer 2"><g id="Layer_1-2" data-name="Layer 1"><circle class="cls-1" cx="16" cy="16" r="16"/><path d="M11,11a1,1,0,0,0-.56.17.94.94,0,0,0-.36.45,1,1,0,0,0-.06.58,1,1,0,0,0,.78.78,1,1,0,0,0,.58-.06.94.94,0,0,0,.45-.36A1,1,0,0,0,11,11Zm0,4a1,1,0,0,0-.56.17.94.94,0,0,0-.36.45,1,1,0,0,0-.06.58,1,1,0,0,0,.78.78,1,1,0,0,0,.58-.06.94.94,0,0,0,.45-.36A1,1,0,0,0,11,15Zm10,0H15a1,1,0,1,0,0,2h6a1,1,0,1,0,0-2Zm0-4H15a1,1,0,1,0,0,2h6a1,1,0,1,0,0-2Zm2-5H9A3,3,0,0,0,6,9V19a3,3,0,0,0,3,3H20.59l3.7,3.71a1,1,0,0,0,.33.22A1,1,0,0,0,25,26a.84.84,0,0,0,.38-.08,1,1,0,0,0,.45-.37A1,1,0,0,0,26,25V9a3,3,0,0,0-3-3Zm1,16.59-2.29-2.3a1,1,0,0,0-.33-.22A1,1,0,0,0,21,20H9a1,1,0,0,1-1-1V9A1,1,0,0,1,9,8H23a1,1,0,0,1,1,1Z"/></g></g></svg>