<svg xmlns="http://www.w3.org/2000/svg" viewBox="0 0 32 32"><defs><style>.cls-1{fill:#e5e5e5;}.cls-2{fill:#fff;}</style></defs><g id="Layer_2" data-name="Layer 2"><g id="Layer_1-2" data-name="Layer 1"><rect class="cls-1" width="32" height="32"/><circle class="cls-2" cx="16" cy="16" r="16"/><path d="M15,13h4a1,1,0,1,0,0-2H17V10a1,1,0,1,0-2,0v1a3,3,0,0,0,0,6h2a1,1,0,1,1,0,2H13a1,1,0,1,0,0,2h2v1a1,1,0,1,0,2,0V21a3,3,0,0,0,0-6H15a1,1,0,1,1,0-2Zm1-8a11,11,0,1,0,7.78,3.22A11.05,11.05,0,0,0,16,5Zm0,20a9,9,0,1,1,6.36-2.64A9,9,0,0,1,16,25Z"/></g></g></svg>