<svg xmlns="http://www.w3.org/2000/svg" viewBox="0 0 32 32"><defs><style>.cls-1{fill:#e5e5e5;}.cls-2{fill:#fff;}</style></defs><g id="Layer_2" data-name="Layer 2"><g id="Layer_1-2" data-name="Layer 1"><rect class="cls-1" width="32" height="32"/><circle class="cls-2" cx="16" cy="16" r="16"/><path d="M25.66,13.25l-9-8a1,1,0,0,0-1.32,0l-9,8a1,1,0,0,0-.31.51,1,1,0,0,0,0,.6A1,1,0,0,0,7,15H8v9a1,1,0,0,0,1,1H23a1,1,0,0,0,1-1V15h1a1,1,0,0,0,.93-.64,1,1,0,0,0,0-.6,1,1,0,0,0-.31-.51ZM17,23H15V20a1,1,0,1,1,2,0Zm5,0H19V20a3,3,0,0,0-6,0v3H10V15H22ZM9.63,13,16,7.34,22.37,13Z"/></g></g></svg>