<?xml version="1.0" encoding="utf-8"?>
<!-- Generator: Adobe Illustrator 26.0.1, SVG Export Plug-In . SVG Version: 6.00 Build 0)  -->
<svg version="1.1" id="Layer_1" xmlns="http://www.w3.org/2000/svg" xmlns:xlink="http://www.w3.org/1999/xlink" x="0px" y="0px"
	 viewBox="0 0 32 32" style="enable-background:new 0 0 32 32;" xml:space="preserve">
<style type="text/css">
	.st0{fill:#FFFFFF;}
	.st1{fill:#FFFFFF;stroke:#000000;stroke-miterlimit:10;}
</style>
<g id="Layer_2_00000072966607932777756640000008001102057622015676_">
	<g id="Layer_1-2">
		<circle class="st0" cx="16" cy="16" r="16"/>
		<path d="M22.9,26.3l-6.4-4.6c-0.3-0.2-0.8-0.2-1.1,0l-6.4,4.6c-0.1,0.1-0.4,0.1-0.5-0.1c-0.1-0.1-0.1-0.1-0.1-0.2V6.2
			c0-0.3,0.3-0.6,0.6-0.6c0,0,0,0,0,0h13.7c0.3,0,0.6,0.2,0.6,0.6c0,0,0,0,0,0V26c0,0.2-0.1,0.3-0.3,0.4
			C23.1,26.4,23,26.3,22.9,26.3z"/>
		<path class="st0" d="M17.3,12.6l2.7,0.2c0,0,0,0,0,0.1c0,0,0,0,0,0l-2,1.8l0,0l0.7,2.5c0,0,0,0.1,0,0.1c0,0,0,0,0,0L16,15.9l0,0
			l-2.6,1.5c0,0,0,0-0.1,0c0,0,0,0,0-0.1l0.8-2.5l0,0L12,12.9c0,0,0,0,0-0.1c0,0,0,0,0,0l2.7-0.2l0,0l1.3-2.5c0,0,0.1,0,0.1,0
			c0,0,0,0,0,0L17.3,12.6C17.3,12.6,17.3,12.6,17.3,12.6z"/>
	</g>
</g>
<g>
	<path class="st1" d="M22.9,26.3l-6.4-4.6c-0.3-0.2-0.8-0.2-1.1,0l-6.4,4.6c-0.2,0.2-0.5,0-0.5-0.3V6.2c0-0.3,0.3-0.6,0.6-0.6h13.7
		c0.3,0,0.6,0.3,0.6,0.6V26C23.5,26.3,23.2,26.5,22.9,26.3z"/>
	<path class="st1" d="M17.3,12.6l2.7,0.2c0,0,0.1,0.1,0,0.1L18,14.7c0,0,0,0,0,0.1l0.7,2.5c0,0,0,0.1-0.1,0.1L16,15.9c0,0,0,0-0.1,0
		l-2.5,1.5c0,0-0.1,0-0.1-0.1l0.8-2.5c0,0,0,0,0-0.1L12,12.9c0,0,0-0.1,0-0.1l2.7-0.2c0,0,0,0,0,0l1.2-2.5c0,0,0.1,0,0.1,0
		L17.3,12.6C17.3,12.6,17.3,12.6,17.3,12.6z"/>
</g>
</svg>
