<svg xmlns="http://www.w3.org/2000/svg" viewBox="0 0 274.81 95.2"><defs><style>.cls-1{fill:#fff;}.cls-2{fill:#e8e61d;}</style></defs><g id="Layer_2" data-name="Layer 2"><g id="Layer_1-2" data-name="Layer 1"><path class="cls-1" d="M70.59,87.67h-6.3V94.9H58.51V75.58h14v4.6H64.29v3.14h6.3Z"/><path class="cls-1" d="M82.55,95.2a8.78,8.78,0,0,1-6.65-2.7,10.11,10.11,0,0,1-2.57-7.24,10.52,10.52,0,0,1,2.46-7.16,8.57,8.57,0,0,1,6.82-2.82,8.72,8.72,0,0,1,6.58,2.66,9.87,9.87,0,0,1,2.54,7.11,10.44,10.44,0,0,1-2.57,7.38A8.57,8.57,0,0,1,82.55,95.2Zm0-4.39a2.24,2.24,0,0,0,2.16-1.31,11.87,11.87,0,0,0,.66-4.79q0-5-2.7-5c-2,0-2.92,1.91-2.92,5.75Q79.72,90.81,82.52,90.81Z"/><path class="cls-1" d="M111.44,94.9h-6.58L102,87.51h-1.87V94.9H94.23V75.58h10.1a7.81,7.81,0,0,1,5.19,1.56,5.15,5.15,0,0,1,1.85,4.13,6.23,6.23,0,0,1-.68,3,5.77,5.77,0,0,1-2.75,2.26ZM100.17,83.38h2.53a3.12,3.12,0,0,0,1.8-.47,1.56,1.56,0,0,0,.68-1.37q0-1.86-2.28-1.86h-2.73Z"/><path class="cls-1" d="M142.51,75.58V94.9H137V81.08L133.42,94.9h-3.76l-3.72-13.82V94.9h-4.45V75.58h7.75l2.81,10.26,2.68-10.26Z"/><path class="cls-1" d="M156.53,94.9l-1.09-3.81h-5.18L149.1,94.9h-4.81l6-19.32h6.28l6.06,19.32Zm-5.26-8h3.13l-1.57-5.61Z"/><path class="cls-1" d="M178.79,75.58l-6,11.14V94.9H167V86.72l-6.5-11.14H167L170.35,82l3.25-6.37Z"/><path class="cls-1" d="M187.28,95.2a8.76,8.76,0,0,1-6.65-2.7,10.11,10.11,0,0,1-2.57-7.24,10.52,10.52,0,0,1,2.46-7.16,8.57,8.57,0,0,1,6.82-2.82,8.68,8.68,0,0,1,6.57,2.66,9.83,9.83,0,0,1,2.55,7.11,10.44,10.44,0,0,1-2.57,7.38A8.59,8.59,0,0,1,187.28,95.2Zm0-4.39a2.24,2.24,0,0,0,2.16-1.31,11.87,11.87,0,0,0,.66-4.79q0-5-2.7-5c-2,0-2.92,1.91-2.92,5.75Q184.45,90.81,187.25,90.81Z"/><path class="cls-1" d="M216.17,94.9h-6.58l-2.82-7.39H204.9V94.9H199V75.58h10.1a7.81,7.81,0,0,1,5.19,1.56,5.15,5.15,0,0,1,1.85,4.13,6.23,6.23,0,0,1-.68,3,5.77,5.77,0,0,1-2.75,2.26ZM204.9,83.38h2.53a3.12,3.12,0,0,0,1.8-.47,1.56,1.56,0,0,0,.68-1.37q0-1.86-2.28-1.86H204.9Z"/><polygon class="cls-2" points="83.38 9.01 83.38 15.01 268.81 15.01 268.81 82.86 223.46 82.86 223.46 88.86 274.81 88.86 274.81 9.01 83.38 9.01"/><polygon class="cls-2" points="6 15.01 23.95 15.01 23.95 9.01 0 9.01 0 88.86 50.13 88.86 50.13 82.86 6 82.86 6 15.01"/><path class="cls-1" d="M27.73,16.17a41.25,41.25,0,0,0,6.84.44,5.65,5.65,0,0,0,2-.25,1.12,1.12,0,0,0,.61-1.15,1.16,1.16,0,0,0-.47-1.11,3.28,3.28,0,0,0-1.49-.25H33.29q-3.48,0-5-1.46T26.82,7c0-2.32.7-4,2.08-5.07S32.64.37,36,.37a53.29,53.29,0,0,1,8.31.69V7.17a62.68,62.68,0,0,0-6.59-.39,5.76,5.76,0,0,0-2.42.36,1.18,1.18,0,0,0-.68,1.13q0,1.23,2.31,1.23,4.81,0,6.39,1.08T45,15.38q0,3.67-1.86,5.18t-6.36,1.5a66.63,66.63,0,0,1-9-.58Z"/><path class="cls-1" d="M66.78,4.08V21.52H59.21v-4q-.85,4.55-5.82,4.54a5.35,5.35,0,0,1-4.68-2.16q-1.51-2.15-1.51-8,0-8.41,6.29-8.41a6.73,6.73,0,0,1,3.78.9,5.12,5.12,0,0,1,1.94,3V4.08Zm-9.57,6.06c-1.47,0-2.21,1.1-2.21,3.3,0,2,.75,3,2.24,3s2.21-1.06,2.21-3.2S58.7,10.14,57.21,10.14Z"/><path class="cls-1" d="M70.24,21.52V0h7.57V21.52Z"/><path class="cls-2" d="M15.67,29.28l27.61-.09,0,12.38-8,.35-.06,25.6q-5.79.74-11.56,1.58l0-26.63-8,.41Z"/><path class="cls-2" d="M48.33,29.17l11.61,0q-.07,17.79-.14,35.58-5.8.57-11.6,1.22Q48.28,47.57,48.33,29.17Z"/><path class="cls-2" d="M96.5,62q-6.09.32-12.18.72-3.94-10.11-7.9-20.53.31,10.55.64,21-5.44.41-10.88.9.06-17.5.14-35l13.23,0Q83,38.57,86.38,47.79l-.66-18.7,10.88,0Q96.56,45.53,96.5,62Z"/><path class="cls-2" d="M99.82,61.83q4.4-16.59,8.77-32.77h17.59q4.15,16,8.33,31.9-6,0-12,.13c-.32-1.66-.65-3.32-1-5-3,0-5.91.12-8.86.19-.34,1.69-.69,3.38-1,5.07Q105.73,61.56,99.82,61.83Zm14.49-13.77L120,48q-1.4-6.88-2.79-13.79Z"/><path class="cls-2" d="M144.93,29v0h11.61q0,12.5,0,25,0,4.47-3,6.24c-1.75,1.08-4.53,1.59-8.32,1.55a33,33,0,0,1-9.05-1.55V52.14a26.29,26.29,0,0,0,4.58.7c1.68,0,2.82-.28,3.42-.88a3.83,3.83,0,0,0,.69-2.63Z"/><path class="cls-2" d="M162.24,61.33q0-16.14-.07-32.28l24.61,0c0,3.24,0,6.47,0,9.71q-6.51-.13-13-.22c0,1.16,0,2.32,0,3.48q6.51.12,13,.29l0,7.8q-6.51-.26-13-.45c0,1.15,0,2.29,0,3.44q6.51.23,13,.52c0,3,0,5.89,0,8.83Q174.58,61.72,162.24,61.33Z"/><path class="cls-2" d="M192.27,29.09l20.53.05c3.89,0,6.66.85,8.3,2.58s2.48,4.48,2.49,8.24c0,6.88-2.86,10.12-8.67,9.76q4.92,7.78,9.84,16Q218,65,211.17,64.37c-2.4-4.39-4.8-8.68-7.2-12.91q0,6.13.05,12.27-5.82-.48-11.62-.89Q192.33,46,192.27,29.09Zm11.64,9.18,0,7.08,3.88.17q4,.16,4-3.73,0-3.33-3.87-3.42Z"/><path class="cls-2" d="M227.38,46.39c0-6.79,1.16-11.48,3.54-14.13s6.51-4,12.39-4,9.86,1.47,12.22,4.53,3.54,8.33,3.54,15.69c0,8.19-1.27,13.93-3.81,17.08s-6.53,4.27-12,3.51c-5.69-.79-9.76-3-12.19-6.62S227.41,53.48,227.38,46.39Zm11.06,2.9q0,8,4.85,8.46T248,49.57c0-5.26-1.6-8-4.77-8.09S238.43,44,238.44,49.29Z"/></g></g></svg>