<svg xmlns="http://www.w3.org/2000/svg" viewBox="0 0 32 32"><defs><style>.cls-1{fill:#fff;}</style></defs><g id="Layer_2" data-name="Layer 2"><g id="Layer_1-2" data-name="Layer 1"><circle class="cls-1" cx="16" cy="16" r="16"/><path d="M25.3,12.08a3,3,0,0,0-1-.8A3.09,3.09,0,0,0,23,11H18.44L19,9.57a4.11,4.11,0,0,0-.48-3.8A4.11,4.11,0,0,0,15.11,4a1,1,0,0,0-.91.59L11.35,11H9a3,3,0,0,0-3,3v7a3,3,0,0,0,3,3H21.73a3,3,0,0,0,2.95-2.46l1.27-7a3,3,0,0,0-.65-2.46ZM11,22H9a1,1,0,0,1-1-1V14a1,1,0,0,1,1-1h2Zm13-7.82-1.27,7a1,1,0,0,1-1,.82H13V12.21l2.72-6.12a2,2,0,0,1,.76.41,2,2,0,0,1,.54.68,2.18,2.18,0,0,1,.22.84,2.23,2.23,0,0,1-.14.85l-.53,1.43A2,2,0,0,0,18.44,13H23a1.07,1.07,0,0,1,.43.09,1.13,1.13,0,0,1,.34.27,1,1,0,0,1,.21.38A1.09,1.09,0,0,1,24,14.18Z"/></g></g></svg>